<mxfile host="app.diagrams.net" modified="2023-10-15T14:06:28.387Z" agent="Mozilla/5.0 (X11; Linux x86_64) AppleWebKit/537.36 (KHTML, like Gecko) Chrome/117.0.0.0 Safari/537.36" etag="YusFXkkScnFAhVtO1kxL" version="22.0.4" type="device">
  <diagram name="Página-1" id="GgqjymAVhDXShxc4KZD5">
    <mxGraphModel dx="1792" dy="540" grid="1" gridSize="10" guides="1" tooltips="1" connect="1" arrows="1" fold="1" page="1" pageScale="1" pageWidth="827" pageHeight="1169" math="0" shadow="0">
      <root>
        <mxCell id="0" />
        <mxCell id="1" parent="0" />
        <mxCell id="3rk1guDVfLXUHfvduNpp-5" value="" style="edgeStyle=orthogonalEdgeStyle;rounded=0;orthogonalLoop=1;jettySize=auto;html=1;entryX=0.491;entryY=0.97;entryDx=0;entryDy=0;entryPerimeter=0;endArrow=none;endFill=0;" edge="1" parent="1" source="DpPaolGIagNUOrvhkcs7-1" target="3rk1guDVfLXUHfvduNpp-4">
          <mxGeometry relative="1" as="geometry">
            <Array as="points">
              <mxPoint x="100" y="354" />
            </Array>
          </mxGeometry>
        </mxCell>
        <mxCell id="DpPaolGIagNUOrvhkcs7-1" value="&lt;font style=&quot;font-size: 14px;&quot;&gt;Student&lt;/font&gt;" style="swimlane;fontStyle=0;childLayout=stackLayout;horizontal=1;startSize=26;fillColor=none;horizontalStack=0;resizeParent=1;resizeParentMax=0;resizeLast=0;collapsible=1;marginBottom=0;whiteSpace=wrap;html=1;" parent="1" vertex="1">
          <mxGeometry y="436" width="200" height="110" as="geometry" />
        </mxCell>
        <mxCell id="DpPaolGIagNUOrvhkcs7-2" value="&lt;font style=&quot;font-size: 13px;&quot;&gt;first_name: text&amp;nbsp; «not null»&lt;br&gt;last_name: text&amp;nbsp; «not null»&lt;br&gt;email: text&amp;nbsp; «not null» «unique»&lt;br&gt;date_of_birth: date&amp;nbsp; «not null»&lt;br&gt;gpa: float&amp;nbsp; «not null»&lt;br&gt;&lt;/font&gt;" style="text;strokeColor=none;fillColor=none;align=left;verticalAlign=top;spacingLeft=4;spacingRight=4;overflow=hidden;rotatable=0;points=[[0,0.5],[1,0.5]];portConstraint=eastwest;whiteSpace=wrap;html=1;" parent="DpPaolGIagNUOrvhkcs7-1" vertex="1">
          <mxGeometry y="26" width="200" height="84" as="geometry" />
        </mxCell>
        <mxCell id="DpPaolGIagNUOrvhkcs7-5" value="&lt;font style=&quot;font-size: 14px;&quot;&gt;Course&lt;/font&gt;" style="swimlane;fontStyle=0;childLayout=stackLayout;horizontal=1;startSize=26;fillColor=none;horizontalStack=0;resizeParent=1;resizeParentMax=0;resizeLast=0;collapsible=1;marginBottom=0;whiteSpace=wrap;html=1;" parent="1" vertex="1">
          <mxGeometry x="269" y="770" width="250" height="80" as="geometry" />
        </mxCell>
        <mxCell id="DpPaolGIagNUOrvhkcs7-6" value="&lt;font style=&quot;font-size: 13px;&quot;&gt;course_name: text&amp;nbsp; «not null» «unique»&lt;/font&gt;" style="text;strokeColor=none;fillColor=none;align=left;verticalAlign=top;spacingLeft=4;spacingRight=4;overflow=hidden;rotatable=0;points=[[0,0.5],[1,0.5]];portConstraint=eastwest;whiteSpace=wrap;html=1;" parent="DpPaolGIagNUOrvhkcs7-5" vertex="1">
          <mxGeometry y="26" width="250" height="54" as="geometry" />
        </mxCell>
        <mxCell id="DpPaolGIagNUOrvhkcs7-13" value="&lt;font style=&quot;font-size: 14px;&quot;&gt;Room&lt;/font&gt;" style="swimlane;fontStyle=0;childLayout=stackLayout;horizontal=1;startSize=26;fillColor=none;horizontalStack=0;resizeParent=1;resizeParentMax=0;resizeLast=0;collapsible=1;marginBottom=0;whiteSpace=wrap;html=1;" parent="1" vertex="1">
          <mxGeometry x="274" y="200" width="240" height="160" as="geometry" />
        </mxCell>
        <mxCell id="DpPaolGIagNUOrvhkcs7-14" value="&lt;font style=&quot;font-size: 13px;&quot;&gt;room_name: text «not null» «unique»&lt;br style=&quot;border-color: var(--border-color);&quot;&gt;capacity: number «not null»&lt;br&gt;has_projector: boolean «not null»&lt;br&gt;has_computers: boolean «not null»&lt;br&gt;is_accessible: boolean «not null»&lt;/font&gt;" style="text;strokeColor=none;fillColor=none;align=left;verticalAlign=top;spacingLeft=4;spacingRight=4;overflow=hidden;rotatable=0;points=[[0,0.5],[1,0.5]];portConstraint=eastwest;whiteSpace=wrap;html=1;" parent="DpPaolGIagNUOrvhkcs7-13" vertex="1">
          <mxGeometry y="26" width="240" height="134" as="geometry" />
        </mxCell>
        <mxCell id="JEZn9pTCmfTSa3yo_p_b-9" value="*" style="text;html=1;strokeColor=none;fillColor=none;align=center;verticalAlign=middle;whiteSpace=wrap;rounded=0;fontSize=19;" parent="1" vertex="1">
          <mxGeometry x="280" y="481" width="20" height="20" as="geometry" />
        </mxCell>
        <mxCell id="JEZn9pTCmfTSa3yo_p_b-34" value="" style="edgeStyle=orthogonalEdgeStyle;rounded=0;orthogonalLoop=1;jettySize=auto;html=1;entryX=0.506;entryY=1.002;entryDx=0;entryDy=0;entryPerimeter=0;endArrow=none;endFill=0;" parent="1" source="JEZn9pTCmfTSa3yo_p_b-17" target="DpPaolGIagNUOrvhkcs7-14" edge="1">
          <mxGeometry relative="1" as="geometry">
            <mxPoint x="400" y="366" as="targetPoint" />
          </mxGeometry>
        </mxCell>
        <mxCell id="JEZn9pTCmfTSa3yo_p_b-17" value="&lt;font style=&quot;font-size: 14px;&quot;&gt;ExamEvent&lt;/font&gt;" style="swimlane;fontStyle=0;childLayout=stackLayout;horizontal=1;startSize=26;fillColor=none;horizontalStack=0;resizeParent=1;resizeParentMax=0;resizeLast=0;collapsible=1;marginBottom=0;whiteSpace=wrap;html=1;" parent="1" vertex="1">
          <mxGeometry x="300" y="456" width="190" height="70" as="geometry" />
        </mxCell>
        <mxCell id="0303-0BlhwOnU2c-FtY8-27" value="date: date «not null»" style="text;strokeColor=none;fillColor=none;align=left;verticalAlign=top;spacingLeft=4;spacingRight=4;overflow=hidden;rotatable=0;points=[[0,0.5],[1,0.5]];portConstraint=eastwest;whiteSpace=wrap;html=1;" parent="JEZn9pTCmfTSa3yo_p_b-17" vertex="1">
          <mxGeometry y="26" width="190" height="44" as="geometry" />
        </mxCell>
        <mxCell id="JEZn9pTCmfTSa3yo_p_b-30" value="*" style="text;html=1;strokeColor=none;fillColor=none;align=center;verticalAlign=middle;whiteSpace=wrap;rounded=0;fontSize=19;" parent="1" vertex="1">
          <mxGeometry x="395" y="436" width="20" height="20" as="geometry" />
        </mxCell>
        <mxCell id="JEZn9pTCmfTSa3yo_p_b-31" value="*" style="text;html=1;strokeColor=none;fillColor=none;align=center;verticalAlign=middle;whiteSpace=wrap;rounded=0;fontSize=19;" parent="1" vertex="1">
          <mxGeometry x="394" y="528" width="20" height="20" as="geometry" />
        </mxCell>
        <mxCell id="JEZn9pTCmfTSa3yo_p_b-32" value="" style="edgeStyle=orthogonalEdgeStyle;rounded=0;orthogonalLoop=1;jettySize=auto;html=1;endArrow=none;endFill=0;" parent="1" source="DpPaolGIagNUOrvhkcs7-2" edge="1">
          <mxGeometry relative="1" as="geometry">
            <mxPoint x="300" y="504" as="targetPoint" />
          </mxGeometry>
        </mxCell>
        <mxCell id="JEZn9pTCmfTSa3yo_p_b-33" value="" style="edgeStyle=orthogonalEdgeStyle;rounded=0;orthogonalLoop=1;jettySize=auto;html=1;endArrow=none;endFill=0;entryX=0.495;entryY=1.005;entryDx=0;entryDy=0;entryPerimeter=0;" parent="1" source="DpPaolGIagNUOrvhkcs7-5" edge="1">
          <mxGeometry relative="1" as="geometry">
            <mxPoint x="394.04999999999995" y="526.22" as="targetPoint" />
          </mxGeometry>
        </mxCell>
        <mxCell id="JEZn9pTCmfTSa3yo_p_b-36" value="*" style="text;html=1;strokeColor=none;fillColor=none;align=center;verticalAlign=middle;whiteSpace=wrap;rounded=0;fontSize=19;" parent="1" vertex="1">
          <mxGeometry x="200" y="481" width="20" height="20" as="geometry" />
        </mxCell>
        <mxCell id="JEZn9pTCmfTSa3yo_p_b-37" value="1" style="text;html=1;strokeColor=none;fillColor=none;align=center;verticalAlign=middle;whiteSpace=wrap;rounded=0;fontSize=19;" parent="1" vertex="1">
          <mxGeometry x="396" y="750" width="20" height="20" as="geometry" />
        </mxCell>
        <mxCell id="JEZn9pTCmfTSa3yo_p_b-39" value="1" style="text;html=1;strokeColor=none;fillColor=none;align=center;verticalAlign=middle;whiteSpace=wrap;rounded=0;fontSize=19;" parent="1" vertex="1">
          <mxGeometry x="396" y="366" width="20" height="20" as="geometry" />
        </mxCell>
        <mxCell id="0303-0BlhwOnU2c-FtY8-6" value="&lt;font style=&quot;font-size: 14px;&quot;&gt;ExamType&lt;/font&gt;" style="swimlane;fontStyle=0;childLayout=stackLayout;horizontal=1;startSize=26;fillColor=none;horizontalStack=0;resizeParent=1;resizeParentMax=0;resizeLast=0;collapsible=1;marginBottom=0;whiteSpace=wrap;html=1;" parent="1" vertex="1">
          <mxGeometry x="593" y="451" width="234" height="80" as="geometry" />
        </mxCell>
        <mxCell id="0303-0BlhwOnU2c-FtY8-7" value="&lt;font style=&quot;font-size: 13px;&quot;&gt;exam_name: text «not null» «unique»&lt;/font&gt;" style="text;strokeColor=none;fillColor=none;align=left;verticalAlign=top;spacingLeft=4;spacingRight=4;overflow=hidden;rotatable=0;points=[[0,0.5],[1,0.5]];portConstraint=eastwest;whiteSpace=wrap;html=1;" parent="0303-0BlhwOnU2c-FtY8-6" vertex="1">
          <mxGeometry y="26" width="234" height="54" as="geometry" />
        </mxCell>
        <mxCell id="0303-0BlhwOnU2c-FtY8-8" value="1..*" style="text;html=1;strokeColor=none;fillColor=none;align=center;verticalAlign=middle;whiteSpace=wrap;rounded=0;fontSize=19;" parent="1" vertex="1">
          <mxGeometry x="499" y="481" width="20" height="20" as="geometry" />
        </mxCell>
        <mxCell id="0303-0BlhwOnU2c-FtY8-9" value="1" style="text;html=1;strokeColor=none;fillColor=none;align=center;verticalAlign=middle;whiteSpace=wrap;rounded=0;fontSize=19;" parent="1" vertex="1">
          <mxGeometry x="566" y="481" width="20" height="20" as="geometry" />
        </mxCell>
        <mxCell id="0303-0BlhwOnU2c-FtY8-10" style="edgeStyle=orthogonalEdgeStyle;rounded=0;orthogonalLoop=1;jettySize=auto;html=1;entryX=0;entryY=0.5;entryDx=0;entryDy=0;endArrow=none;endFill=0;" parent="1" target="0303-0BlhwOnU2c-FtY8-7" edge="1">
          <mxGeometry relative="1" as="geometry">
            <mxPoint x="490" y="504" as="sourcePoint" />
          </mxGeometry>
        </mxCell>
        <mxCell id="0303-0BlhwOnU2c-FtY8-11" style="edgeStyle=orthogonalEdgeStyle;rounded=0;orthogonalLoop=1;jettySize=auto;html=1;entryX=-0.002;entryY=0.431;entryDx=0;entryDy=0;entryPerimeter=0;endArrow=none;endFill=0;" parent="1" source="DpPaolGIagNUOrvhkcs7-1" target="DpPaolGIagNUOrvhkcs7-6" edge="1">
          <mxGeometry relative="1" as="geometry" />
        </mxCell>
        <mxCell id="0303-0BlhwOnU2c-FtY8-14" value="&lt;font style=&quot;font-size: 12px;&quot;&gt;Registered&lt;/font&gt;" style="edgeLabel;html=1;align=center;verticalAlign=middle;resizable=0;points=[];rotation=90;fontSize=12;" parent="0303-0BlhwOnU2c-FtY8-11" vertex="1" connectable="0">
          <mxGeometry x="-0.4858" y="3" relative="1" as="geometry">
            <mxPoint x="-2" y="-5" as="offset" />
          </mxGeometry>
        </mxCell>
        <mxCell id="0303-0BlhwOnU2c-FtY8-12" value="*" style="text;html=1;strokeColor=none;fillColor=none;align=center;verticalAlign=middle;whiteSpace=wrap;rounded=0;fontSize=19;" parent="1" vertex="1">
          <mxGeometry x="100" y="548" width="20" height="20" as="geometry" />
        </mxCell>
        <mxCell id="0303-0BlhwOnU2c-FtY8-13" value="1..*" style="text;html=1;strokeColor=none;fillColor=none;align=center;verticalAlign=middle;whiteSpace=wrap;rounded=0;fontSize=19;" parent="1" vertex="1">
          <mxGeometry x="243" y="796" width="20" height="20" as="geometry" />
        </mxCell>
        <mxCell id="0303-0BlhwOnU2c-FtY8-15" value="" style="triangle;whiteSpace=wrap;html=1;fillStyle=solid;fillColor=#000000;rotation=90;" parent="1" vertex="1">
          <mxGeometry x="95" y="690" width="10" height="10" as="geometry" />
        </mxCell>
        <mxCell id="0303-0BlhwOnU2c-FtY8-26" style="edgeStyle=orthogonalEdgeStyle;rounded=0;orthogonalLoop=1;jettySize=auto;html=1;endArrow=none;endFill=0;dashed=1;exitX=0.5;exitY=0;exitDx=0;exitDy=0;" parent="1" source="0303-0BlhwOnU2c-FtY8-24" edge="1">
          <mxGeometry relative="1" as="geometry">
            <mxPoint x="253" y="504" as="targetPoint" />
            <mxPoint x="253" y="579" as="sourcePoint" />
          </mxGeometry>
        </mxCell>
        <mxCell id="0303-0BlhwOnU2c-FtY8-24" value="" style="swimlane;fontStyle=0;childLayout=stackLayout;horizontal=1;startSize=26;fillColor=none;horizontalStack=0;resizeParent=1;resizeParentMax=0;resizeLast=0;collapsible=1;marginBottom=0;whiteSpace=wrap;html=1;" parent="1" vertex="1">
          <mxGeometry x="158" y="585" width="190" height="70" as="geometry" />
        </mxCell>
        <mxCell id="0303-0BlhwOnU2c-FtY8-25" value="&lt;font style=&quot;font-size: 13px;&quot;&gt;grade: float «not null»&lt;/font&gt;" style="text;strokeColor=none;fillColor=none;align=left;verticalAlign=top;spacingLeft=4;spacingRight=4;overflow=hidden;rotatable=0;points=[[0,0.5],[1,0.5]];portConstraint=eastwest;whiteSpace=wrap;html=1;" parent="0303-0BlhwOnU2c-FtY8-24" vertex="1">
          <mxGeometry y="26" width="190" height="44" as="geometry" />
        </mxCell>
        <mxCell id="0303-0BlhwOnU2c-FtY8-29" value="&lt;font style=&quot;font-size: 14px;&quot;&gt;Building&lt;/font&gt;" style="swimlane;fontStyle=0;childLayout=stackLayout;horizontal=1;startSize=26;fillColor=none;horizontalStack=0;resizeParent=1;resizeParentMax=0;resizeLast=0;collapsible=1;marginBottom=0;whiteSpace=wrap;html=1;" parent="1" vertex="1">
          <mxGeometry x="586" y="232" width="240" height="80" as="geometry" />
        </mxCell>
        <mxCell id="0303-0BlhwOnU2c-FtY8-28" value="&lt;span style=&quot;color: rgb(0, 0, 0); font-family: Helvetica; font-size: 13px; font-style: normal; font-variant-ligatures: normal; font-variant-caps: normal; font-weight: 400; letter-spacing: normal; orphans: 2; text-align: left; text-indent: 0px; text-transform: none; widows: 2; word-spacing: 0px; -webkit-text-stroke-width: 0px; background-color: rgb(251, 251, 251); text-decoration-thickness: initial; text-decoration-style: initial; text-decoration-color: initial; float: none; display: inline !important;&quot;&gt;building_name: text «not null» «unique»&lt;/span&gt;" style="text;whiteSpace=wrap;html=1;" parent="0303-0BlhwOnU2c-FtY8-29" vertex="1">
          <mxGeometry y="26" width="240" height="54" as="geometry" />
        </mxCell>
        <mxCell id="0303-0BlhwOnU2c-FtY8-31" style="edgeStyle=orthogonalEdgeStyle;rounded=0;orthogonalLoop=1;jettySize=auto;html=1;entryX=-0.004;entryY=0.651;entryDx=0;entryDy=0;entryPerimeter=0;endArrow=none;endFill=0;" parent="1" source="DpPaolGIagNUOrvhkcs7-14" target="0303-0BlhwOnU2c-FtY8-28" edge="1">
          <mxGeometry relative="1" as="geometry" />
        </mxCell>
        <mxCell id="0303-0BlhwOnU2c-FtY8-32" value="1" style="text;html=1;strokeColor=none;fillColor=none;align=center;verticalAlign=middle;whiteSpace=wrap;rounded=0;fontSize=19;" parent="1" vertex="1">
          <mxGeometry x="565" y="270" width="20" height="20" as="geometry" />
        </mxCell>
        <mxCell id="0303-0BlhwOnU2c-FtY8-33" value="*" style="text;html=1;strokeColor=none;fillColor=none;align=center;verticalAlign=middle;whiteSpace=wrap;rounded=0;fontSize=19;" parent="1" vertex="1">
          <mxGeometry x="514" y="270" width="20" height="20" as="geometry" />
        </mxCell>
        <mxCell id="3rk1guDVfLXUHfvduNpp-3" value="State" style="swimlane;fontStyle=0;childLayout=stackLayout;horizontal=1;startSize=26;fillColor=none;horizontalStack=0;resizeParent=1;resizeParentMax=0;resizeLast=0;collapsible=1;marginBottom=0;whiteSpace=wrap;html=1;" vertex="1" parent="1">
          <mxGeometry x="6" y="285" width="190" height="70" as="geometry" />
        </mxCell>
        <mxCell id="3rk1guDVfLXUHfvduNpp-4" value="&lt;font style=&quot;font-size: 13px;&quot;&gt;state_name&amp;nbsp;&amp;nbsp;&lt;/font&gt;«not null» «unique»" style="text;strokeColor=none;fillColor=none;align=left;verticalAlign=top;spacingLeft=4;spacingRight=4;overflow=hidden;rotatable=0;points=[[0,0.5],[1,0.5]];portConstraint=eastwest;whiteSpace=wrap;html=1;" vertex="1" parent="3rk1guDVfLXUHfvduNpp-3">
          <mxGeometry y="26" width="190" height="44" as="geometry" />
        </mxCell>
        <mxCell id="3rk1guDVfLXUHfvduNpp-6" value="*" style="text;html=1;strokeColor=none;fillColor=none;align=center;verticalAlign=middle;whiteSpace=wrap;rounded=0;fontSize=19;" vertex="1" parent="1">
          <mxGeometry x="104" y="413" width="20" height="20" as="geometry" />
        </mxCell>
        <mxCell id="3rk1guDVfLXUHfvduNpp-7" value="1" style="text;html=1;strokeColor=none;fillColor=none;align=center;verticalAlign=middle;whiteSpace=wrap;rounded=0;fontSize=19;" vertex="1" parent="1">
          <mxGeometry x="103" y="362" width="20" height="20" as="geometry" />
        </mxCell>
        <mxCell id="3rk1guDVfLXUHfvduNpp-9" value="" style="edgeStyle=orthogonalEdgeStyle;rounded=0;orthogonalLoop=1;jettySize=auto;html=1;endArrow=none;endFill=0;dashed=1;entryX=-0.003;entryY=0.351;entryDx=0;entryDy=0;entryPerimeter=0;" edge="1" parent="1" source="3rk1guDVfLXUHfvduNpp-8" target="0303-0BlhwOnU2c-FtY8-25">
          <mxGeometry relative="1" as="geometry">
            <Array as="points">
              <mxPoint x="229" y="670" />
              <mxPoint x="130" y="670" />
              <mxPoint x="130" y="626" />
            </Array>
          </mxGeometry>
        </mxCell>
        <mxCell id="3rk1guDVfLXUHfvduNpp-8" value="{0 &amp;lt;= grade &amp;lt;= 100}" style="shape=note;size=20;whiteSpace=wrap;html=1;" vertex="1" parent="1">
          <mxGeometry x="159" y="700" width="141" height="50" as="geometry" />
        </mxCell>
        <mxCell id="3rk1guDVfLXUHfvduNpp-11" value="" style="edgeStyle=orthogonalEdgeStyle;rounded=0;orthogonalLoop=1;jettySize=auto;html=1;endArrow=none;endFill=0;dashed=1;entryX=-0.01;entryY=0.905;entryDx=0;entryDy=0;entryPerimeter=0;" edge="1" parent="1" source="3rk1guDVfLXUHfvduNpp-10" target="DpPaolGIagNUOrvhkcs7-2">
          <mxGeometry relative="1" as="geometry" />
        </mxCell>
        <mxCell id="3rk1guDVfLXUHfvduNpp-10" value="{0 &amp;lt;= gpa &amp;lt;= 4}" style="shape=note;size=20;whiteSpace=wrap;html=1;" vertex="1" parent="1">
          <mxGeometry x="-100" y="595" width="141" height="50" as="geometry" />
        </mxCell>
      </root>
    </mxGraphModel>
  </diagram>
</mxfile>
